HIERARCHY
ROOT root
{
  OFFSET 0 98.6856 0
  CHANNELS 6 Xposition Yposition Zposition Zrotation Xrotation Yrotation
  JOINT torso_1
  {
    OFFSET 0 5.37224 -1.21793
    CHANNELS 6 Xposition Yposition Zposition Zrotation Xrotation Yrotation
    JOINT torso_2
    {
      OFFSET 0 5.94127 1.13336
      CHANNELS 6 Xposition Yposition Zposition Zrotation Xrotation Yrotation
      JOINT torso_3
      {
        OFFSET -1.08535e-17 6.33601 0.121658
        CHANNELS 6 Xposition Yposition Zposition Zrotation Xrotation Yrotation
        JOINT torso_4
        {
          OFFSET -1.16841e-17 6.88189 -0.46916
          CHANNELS 6 Xposition Yposition Zposition Zrotation Xrotation Yrotation
          JOINT torso_5
          {
            OFFSET -2.08699e-17 8.0451 -1.59297
            CHANNELS 6 Xposition Yposition Zposition Zrotation Xrotation Yrotation
            JOINT torso_6
            {
              OFFSET -2.67949e-17 10.0463 -0.967353
              CHANNELS 6 Xposition Yposition Zposition Zrotation Xrotation Yrotation
              JOINT torso_7
              {
                OFFSET -3.07187e-17 11.1612 1.66806
                CHANNELS 6 Xposition Yposition Zposition Zrotation Xrotation Yrotation
                JOINT neck_1
                {
                  OFFSET -1.36661e-17 5.06312 0.756688
                  CHANNELS 6 Xposition Yposition Zposition Zrotation Xrotation Yrotation
                  JOINT neck_2
                  {
                    OFFSET -1.91632e-17 5.09976 0.446172
                    CHANNELS 6 Xposition Yposition Zposition Zrotation Xrotation Yrotation
                    JOINT head
                    {
                      OFFSET -2.12574e-17 5.10962 0.809285
                      CHANNELS 6 Xposition Yposition Zposition Zrotation Xrotation Yrotation
                      End Site
                      {
                        OFFSET 0 0.1 0
                      }
                    }
                  }
                }
                JOINT l_shoulder
                {
                  OFFSET 1.30426 -8.04703 7.96922
                  CHANNELS 6 Xposition Yposition Zposition Zrotation Xrotation Yrotation
                  JOINT l_up_arm
                  {
                    OFFSET 13.7035 3.43734 -3.45766
                    CHANNELS 6 Xposition Yposition Zposition Zrotation Xrotation Yrotation
                    JOINT l_low_arm
                    {
                      OFFSET 30.8964 0.0632652 0.14496
                      CHANNELS 6 Xposition Yposition Zposition Zrotation Xrotation Yrotation
                      JOINT l_hand
                      {
                        OFFSET 25.6348 0.0524902 0.120274
                        CHANNELS 6 Xposition Yposition Zposition Zrotation Xrotation Yrotation
                        End Site
                        {
                          OFFSET 0.1 0 0
                        }
                      }
                    }
                  }
                }
                JOINT r_shoulder
                {
                  OFFSET -1.30426 -8.04702 7.96912
                  CHANNELS 6 Xposition Yposition Zposition Zrotation Xrotation Yrotation
                  JOINT r_up_arm
                  {
                    OFFSET -13.7035 3.43734 -3.45766
                    CHANNELS 6 Xposition Yposition Zposition Zrotation Xrotation Yrotation
                    JOINT r_low_arm
                    {
                      OFFSET -30.8964 0.0632652 0.14496
                      CHANNELS 6 Xposition Yposition Zposition Zrotation Xrotation Yrotation
                      JOINT r_hand
                      {
                        OFFSET -25.6348 0.0524901 0.120274
                        CHANNELS 6 Xposition Yposition Zposition Zrotation Xrotation Yrotation
                        End Site
                        {
                          OFFSET -0.1 0 0
                        }
                      }
                    }
                  }
                }
              }
            }
          }
        }
      }
    }
  }
  JOINT l_up_leg
  {
    OFFSET 9.77065 -4.44866 2.1502
    CHANNELS 6 Xposition Yposition Zposition Zrotation Xrotation Yrotation
    JOINT l_low_leg
    {
      OFFSET -0.901622 -41.0132 -0.693059
      CHANNELS 6 Xposition Yposition Zposition Zrotation Xrotation Yrotation
      JOINT l_foot
      {
        OFFSET -2.46068 -42.7371 -6.39839
        CHANNELS 6 Xposition Yposition Zposition Zrotation Xrotation Yrotation
        JOINT l_toes
        {
          OFFSET 0.82413 -10.4558 13.2182
          CHANNELS 6 Xposition Yposition Zposition Zrotation Xrotation Yrotation
          End Site
          {
            OFFSET 0 0 0.1
          }
        }
      }
    }
  }
  JOINT r_up_leg
  {
    OFFSET -9.77065 -4.44866 2.1502
    CHANNELS 6 Xposition Yposition Zposition Zrotation Xrotation Yrotation
    JOINT r_low_leg
    {
      OFFSET 0.901622 -41.0132 -0.693059
      CHANNELS 6 Xposition Yposition Zposition Zrotation Xrotation Yrotation
      JOINT r_foot
      {
        OFFSET 2.46068 -42.7371 -6.39839
        CHANNELS 6 Xposition Yposition Zposition Zrotation Xrotation Yrotation
        JOINT r_toes
        {
          OFFSET -0.82413 -10.4558 13.2182
          CHANNELS 6 Xposition Yposition Zposition Zrotation Xrotation Yrotation
          End Site
          {
            OFFSET 0 0 0.1
          }
        }
      }
    }
  }
}
MOTION
Frames: 7
Frame Time: 0.02
0 98.6856 0 -0 0 -0 0 5.37224 -1.21793 -0 0 -0 0 5.94127 1.13336 -0 0 -0 -1.08535e-17 6.33601 0.121658 -0 0 -0 -1.16841e-17 6.88189 -0.46916 -0 0 -0 -2.08699e-17 8.0451 -1.59297 -0 0 -0 -2.67949e-17 10.0463 -0.967353 -0 0 -0 -3.07187e-17 11.1612 1.66806 -0 0 -0 -1.36661e-17 5.06312 0.756688 -0 0 -0 -1.91632e-17 5.09976 0.446172 -0 0 -0 -2.12574e-17 5.10962 0.809285 -0 0 -0 1.30426 -8.04703 7.96922 -0 0 -0 13.7035 3.43734 -3.45766 -0 0 -0 30.8964 0.0632652 0.14496 -0 0 -0 25.6348 0.0524902 0.120274 -0 0 -0 -1.30426 -8.04702 7.96912 -0 0 -0 -13.7035 3.43734 -3.45766 -0 0 -0 -30.8964 0.0632652 0.14496 -0 0 -0 -25.6348 0.0524901 0.120274 -0 0 -0 9.77065 -4.44866 2.1502 -0 0 -0 -0.901622 -41.0132 -0.693059 -0 0 -0 -2.46068 -42.7371 -6.39839 -0 0 -0 0.82413 -10.4558 13.2182 -0 0 -0 -9.77065 -4.44866 2.1502 -0 0 -0 0.901622 -41.0132 -0.693059 -0 0 -0 2.46068 -42.7371 -6.39839 -0 0 -0 -0.82413 -10.4558 13.2182 -0 0 -0 
46.9666 98.1722 -136.526 3.13211 0.258749 10.8407 0 5.37224 -1.21793 -0.687271 3.19242 0.188348 0 5.94127 1.13336 -0.687084 2.70737 0.0401591 -1.08535e-17 6.33601 0.121658 -0.506959 2.4605 0.00690533 -1.16841e-17 6.88189 -0.46916 -0.299964 2.01866 -0.022779 -2.08699e-17 8.0451 -1.59297 -0.101756 1.30881 0.0141629 -2.67949e-17 10.0463 -0.967353 0.12524 0.986882 -0.162423 -3.07187e-17 11.1612 1.66806 -0.00537377 0.129255 -0.0178505 -1.36661e-17 5.06312 0.756688 -0.405378 -9.12592 -2.99909 -1.91632e-17 5.09976 0.446172 -0.0936355 -6.13117 -1.8869 -2.12574e-17 5.10962 0.809285 -0.0345953 -2.84994 -0.788914 1.30426 -8.04703 7.96922 -2.18411 3.87542 -7.51741 13.7035 3.43734 -3.45766 -85.0649 7.85566 -13.9633 30.8964 0.0632652 0.14496 0.636046 -0.0135782 -3.06735 25.6348 0.0524902 0.120274 2.25006 -3.05106 -4.85931 -1.30426 -8.04702 7.96912 4.71894 5.65712 6.17328 -13.7035 3.43734 -3.45766 74.3798 20.0777 21.3136 -30.8964 0.0632652 0.14496 -0.989178 -0.0361497 4.77242 -25.6348 0.0524901 0.120274 0.338951 -15.8206 1.6174 9.77065 -4.44866 2.1502 -5.85562 -1.52752 -23.9893 -0.901622 -41.0132 -0.693059 -0.757884 2.83053 -0.030689 -2.46068 -42.7371 -6.39839 4.75367 1.77165 14.3916 0.82413 -10.4558 13.2182 4.96962e-17 -7.95139e-16 1.2424e-17 -9.77065 -4.44866 2.1502 1.05919 -2.74276 23.5255 0.901622 -41.0132 -0.693059 0.921074 3.4399 0.0323993 2.46068 -42.7371 -6.39839 -4.9271 -2.07974 -14.6463 -0.82413 -10.4558 13.2182 -9.93923e-16 -5.46658e-16 -1.27222e-14 
46.9368 98.1953 -136.519 3.18033 0.292119 10.8048 0 5.37224 -1.21793 -0.685134 3.18937 0.197977 0 5.94127 1.13336 -0.689265 2.70479 0.0514124 -1.08535e-17 6.33601 0.121658 -0.511153 2.46301 0.0181443 -1.16841e-17 6.88189 -0.46916 -0.306338 2.02824 -0.0109211 -2.08699e-17 8.0451 -1.59297 -0.107103 1.3189 0.0265831 -2.67949e-17 10.0463 -0.967353 0.121649 1.00197 -0.148383 -3.07187e-17 11.1612 1.66806 -0.00549415 0.129185 -0.0178914 -1.36661e-17 5.06312 0.756688 -0.409078 -9.20119 -2.99968 -1.91632e-17 5.09976 0.446172 -0.0788139 -6.15316 -1.88538 -2.12574e-17 5.10962 0.809285 0.00652652 -2.92019 -0.739587 1.30426 -8.04703 7.96922 -2.27142 3.89144 -7.53429 13.7035 3.43734 -3.45766 -85.0955 7.573 -13.8756 30.8964 0.0632652 0.14496 0.625361 -0.0130658 -3.01578 25.6348 0.0524902 0.120274 2.26448 -2.92334 -4.8949 -1.30426 -8.04702 7.96912 4.73445 5.65691 6.15688 -13.7035 3.43734 -3.45766 74.3649 20.1016 21.3608 -30.8964 0.0632652 0.14496 -0.982492 -0.0356284 4.74009 -25.6348 0.0524901 0.120274 0.289028 -15.6677 1.58476 9.77065 -4.44866 2.1502 -5.90242 -1.62617 -23.7057 -0.901622 -41.0132 -0.693059 -0.786422 2.93711 -0.0311134 -2.46068 -42.7371 -6.39839 4.71111 1.86185 14.3778 0.82413 -10.4558 13.2182 4.47266e-16 -7.82715e-16 3.05504e-33 -9.77065 -4.44866 2.1502 1.03764 -2.80832 23.3437 0.901622 -41.0132 -0.693059 0.940983 3.51422 0.0324889 2.46068 -42.7371 -6.39839 -4.94128 -2.035 -14.6346 -0.82413 -10.4558 13.2182 -9.93923e-16 -5.46658e-16 -1.27222e-14 
46.9106 98.2192 -136.523 3.23468 0.371026 10.7756 0 5.37224 -1.21793 -0.692845 3.15175 0.20391 0 5.94127 1.13336 -0.698323 2.68105 0.0571317 -1.08535e-17 6.33601 0.121658 -0.520414 2.45529 0.0230648 -1.16841e-17 6.88189 -0.46916 -0.31586 2.04534 -0.00601484 -2.08699e-17 8.0451 -1.59297 -0.115317 1.34568 0.0326103 -2.67949e-17 10.0463 -0.967353 0.114837 1.03894 -0.139595 -3.07187e-17 11.1612 1.66806 -0.00566361 0.128792 -0.0179942 -1.36661e-17 5.06312 0.756688 -0.423969 -9.30112 -3.01704 -1.91632e-17 5.09976 0.446172 -0.0740508 -6.15656 -1.89155 -2.12574e-17 5.10962 0.809285 0.0788412 -2.96265 -0.683365 1.30426 -8.04703 7.96922 -2.38161 3.90472 -7.55218 13.7035 3.43734 -3.45766 -85.0985 7.19785 -13.8296 30.8964 0.0632652 0.14496 0.612362 -0.0124555 -2.95306 25.6348 0.0524902 0.120274 2.29321 -2.68209 -4.90177 -1.30426 -8.04702 7.96912 4.78349 5.6513 6.14226 -13.7035 3.43734 -3.45766 74.3321 20.063 21.4248 -30.8964 0.0632652 0.14496 -0.976596 -0.0351718 4.71159 -25.6348 0.0524901 0.120274 0.238427 -15.4466 1.56116 9.77065 -4.44866 2.1502 -5.96441 -1.76325 -23.4106 -0.901622 -41.0132 -0.693059 -0.807922 3.01741 -0.031398 -2.46068 -42.7371 -6.39839 4.6471 1.96345 14.3654 0.82413 -10.4558 13.2182 4.96962e-17 -7.95139e-16 1.2424e-17 -9.77065 -4.44866 2.1502 1.00284 -2.96942 23.1093 0.901622 -41.0132 -0.693059 0.982981 3.67099 0.0325932 2.46068 -42.7371 -6.39839 -4.94486 -2.02248 -14.6269 -0.82413 -10.4558 13.2182 -5.96354e-16 -5.59082e-16 -1.27471e-14 
46.8859 98.2386 -136.53 3.24469 0.528774 10.7489 0 5.37224 -1.21793 -0.701032 3.08872 0.202967 0 5.94127 1.13336 -0.705745 2.63908 0.0549629 -1.08535e-17 6.33601 0.121658 -0.526855 2.43308 0.0196103 -1.16841e-17 6.88189 -0.46916 -0.321372 2.05193 -0.0099816 -2.08699e-17 8.0451 -1.59297 -0.120077 1.36591 0.0292728 -2.67949e-17 10.0463 -0.967353 0.108816 1.07041 -0.139636 -3.07187e-17 11.1612 1.66806 -0.00582871 0.12842 -0.0181318 -1.36661e-17 5.06312 0.756688 -0.429498 -9.44354 -3.00419 -1.91632e-17 5.09976 0.446172 -0.0656574 -6.13067 -1.88364 -2.12574e-17 5.10962 0.809285 0.15852 -2.9462 -0.637105 1.30426 -8.04703 7.96922 -2.50509 3.92775 -7.56005 13.7035 3.43734 -3.45766 -85.0934 6.75281 -13.7686 30.8964 0.0632652 0.14496 0.599082 -0.0118466 -2.88897 25.6348 0.0524902 0.120274 2.34644 -2.3678 -4.92561 -1.30426 -8.04702 7.96912 4.85979 5.65464 6.12664 -13.7035 3.43734 -3.45766 74.2965 19.9505 21.4946 -30.8964 0.0632652 0.14496 -0.970956 -0.0347376 4.68432 -25.6348 0.0524901 0.120274 0.19315 -15.1704 1.54818 9.77065 -4.44866 2.1502 -6.00094 -1.9898 -23.0198 -0.901622 -41.0132 -0.693059 -0.832138 3.10784 -0.0316825 -2.46068 -42.7371 -6.39839 4.60478 2.01691 14.356 0.82413 -10.4558 13.2182 4.96962e-17 -7.95139e-16 1.2424e-17 -9.77065 -4.44866 2.1502 1.00198 -3.26005 22.8277 0.901622 -41.0132 -0.693059 1.0444 3.90018 0.0325383 2.46068 -42.7371 -6.39839 -4.95398 -2.02983 -14.6181 -0.82413 -10.4558 13.2182 -5.96354e-16 -5.59082e-16 -1.27471e-14 
46.8601 98.2628 -136.515 3.23564 0.660202 10.7716 0 5.37224 -1.21793 -0.698951 3.01091 0.190822 0 5.94127 1.13336 -0.702837 2.58853 0.0416444 -1.08535e-17 6.33601 0.121658 -0.525086 2.40458 0.00465763 -1.16841e-17 6.88189 -0.46916 -0.32062 2.05525 -0.0258804 -2.08699e-17 8.0451 -1.59297 -0.123529 1.38473 0.0130206 -2.67949e-17 10.0463 -0.967353 0.0976638 1.10113 -0.151231 -3.07187e-17 11.1612 1.66806 -0.0061103 0.127956 -0.0183112 -1.36661e-17 5.06312 0.756688 -0.438126 -9.60175 -2.98041 -1.91632e-17 5.09976 0.446172 -0.0751226 -6.053 -1.87116 -2.12574e-17 5.10962 0.809285 0.241192 -2.83547 -0.572382 1.30426 -8.04703 7.96922 -2.63877 3.96369 -7.58844 13.7035 3.43734 -3.45766 -85.083 6.24372 -13.7062 30.8964 0.0632652 0.14496 0.581102 -0.0110461 -2.80222 25.6348 0.0524902 0.120274 2.4079 -1.99779 -4.90413 -1.30426 -8.04702 7.96912 4.95693 5.674 6.13521 -13.7035 3.43734 -3.45766 74.2208 19.8734 21.548 -30.8964 0.0632652 0.14496 -0.965601 -0.0343278 4.65843 -25.6348 0.0524901 0.120274 0.18727 -15.0146 1.54142 9.77065 -4.44866 2.1502 -6.01583 -2.21612 -22.6978 -0.901622 -41.0132 -0.693059 -0.871905 3.25633 -0.0320666 -2.46068 -42.7371 -6.39839 4.57471 2.06393 14.3444 0.82413 -10.4558 13.2182 4.96962e-17 -7.95139e-16 1.2424e-17 -9.77065 -4.44866 2.1502 1.02307 -3.5191 22.4693 0.901622 -41.0132 -0.693059 1.10682 4.13307 0.0322302 2.46068 -42.7371 -6.39839 -4.94856 -2.01163 -14.6063 -0.82413 -10.4558 13.2182 -5.96354e-16 -5.59082e-16 -1.27471e-14 
46.8331 98.2906 -136.478 3.25694 0.734719 10.8593 0 5.37224 -1.21793 -0.702282 2.94168 0.170633 0 5.94127 1.13336 -0.702961 2.54793 0.0179223 -1.08535e-17 6.33601 0.121658 -0.52483 2.38576 -0.0208371 -1.16841e-17 6.88189 -0.46916 -0.319282 2.0692 -0.0525634 -2.08699e-17 8.0451 -1.59297 -0.127195 1.4117 -0.0139878 -2.67949e-17 10.0463 -0.967353 0.0850022 1.14022 -0.173551 -3.07187e-17 11.1612 1.66806 -0.00637643 0.127289 -0.0186144 -1.36661e-17 5.06312 0.756688 -0.432435 -9.76711 -2.91057 -1.91632e-17 5.09976 0.446172 -0.0821447 -5.96941 -1.83841 -2.12574e-17 5.10962 0.809285 0.316213 -2.67057 -0.551692 1.30426 -8.04703 7.96922 -2.76723 3.99631 -7.62995 13.7035 3.43734 -3.45766 -85.0538 5.76513 -13.6606 30.8964 0.0632652 0.14496 0.558595 -0.0100823 -2.69362 25.6348 0.0524902 0.120274 2.47091 -1.62641 -4.86877 -1.30426 -8.04702 7.96912 5.06181 5.68669 6.15268 -13.7035 3.43734 -3.45766 74.1506 19.791 21.5965 -30.8964 0.0632652 0.14496 -0.959956 -0.0338987 4.63114 -25.6348 0.0524901 0.120274 0.184891 -14.9241 1.53933 9.77065 -4.44866 2.1502 -6.05197 -2.36764 -22.4947 -0.901622 -41.0132 -0.693059 -0.911134 3.40279 -0.0323444 -2.46068 -42.7371 -6.39839 4.53509 2.14564 14.3325 0.82413 -10.4558 13.2182 4.96962e-17 -7.95139e-16 1.2424e-17 -9.77065 -4.44866 2.1502 1.01662 -3.66736 22.0779 0.901622 -41.0132 -0.693059 1.15424 4.30994 0.0318262 2.46068 -42.7371 -6.39839 -4.94365 -1.98117 -14.5942 -0.82413 -10.4558 13.2182 -5.96354e-16 -5.59082e-16 -1.27471e-14 
